<svg xmlns="http://www.w3.org/2000/svg" xmlns:xlink="http://www.w3.org/1999/xlink" version="1.1"
  viewBox="0 0 96 120" x="0px" y="0px">
  <path
    d="M78 36.040c-1.1 0-2-0.896-2-2 0-15.396-12.524-27.916-27.92-27.916s-27.92 12.528-27.92 27.916c0 1.104-0.896 2-2 2s-2-0.896-2-2c0-17.592 14.32-31.916 31.92-31.916s31.92 14.32 31.92 31.916c0 1.104-0.9 2-2 2z"
    fill="#ffffff" />
  <path
    d="M48.516 41.876c-14.816 0-26.308-1.888-31.524-5.176-0.932-0.584-1.216-1.824-0.624-2.752 0.588-0.928 1.824-1.228 2.756-0.624 1.696 1.072 8.832 4.56 29.392 4.56 19.528 0 26.344-3.164 28.368-4.528 0.916-0.604 2.156-0.38 2.776 0.552 0.612 0.916 0.372 2.152-0.544 2.768-4.992 3.352-15.86 5.2-30.6 5.2z"
    fill="#ffffff" />
  <path
    d="M48.484 93.876c-19.88 0-28.272-3.228-31.504-5.148-0.608-0.36-0.98-1.012-0.98-1.72l0.056-55.152c0.004-0.68 0.356-1.308 0.932-1.672 5.212-3.288 16.704-5.176 31.528-5.176 14.756 0 25.624 1.852 30.6 5.212 0.552 0.376 0.884 0.992 0.884 1.656v55.132c0 0.708-0.372 1.36-0.98 1.72-5.756 3.416-16.024 5.148-30.536 5.148zM20 85.812c3.164 1.532 11.040 4.064 28.484 4.064 15.728 0 23.592-2.084 27.516-4.056v-52.812c-2.84-1.512-10.152-4-27.484-4-17.964 0-25.676 2.66-28.472 4.048l-0.044 4.956v47.8z"
    fill="#ffffff" />
  <path
    d="M48.516 77.876c-7.108 0-13.44-0.424-18.828-1.276-0.972-0.164-1.688-1-1.688-1.984v-24c0-0.584 0.256-1.14 0.7-1.52 0.444-0.388 1.036-0.544 1.612-0.456 5.18 0.82 11.304 1.24 18.204 1.24 4.816 0 9.16-0.208 13.28-0.624 0.568-0.076 1.124 0.116 1.544 0.504 0.416 0.376 0.66 0.912 0.66 1.484v24c0 1.024-0.772 1.884-1.796 1.98-4.26 0.436-8.736 0.652-13.688 0.652zM32 72.888c4.808 0.656 10.352 0.988 16.516 0.988 4.12 0 7.9-0.152 11.484-0.46v-19.98c-3.592 0.292-7.384 0.44-11.484 0.44-6.112 0-11.656-0.32-16.516-0.944v19.956z"
    fill="#ffffff" />
</svg>