<svg xmlns="http://www.w3.org/2000/svg" xmlns:xlink="http://www.w3.org/1999/xlink" version="1.1"
  viewBox="0 0 96 120" x="0px" y="0px">
  <path
    d="M60 96h-52c-1.104 0-2-0.9-2-2v-64c0-1.1 0.896-2 2-2h52c1.1 0 2 0.9 2 2v64c0 1.1-0.9 2-2 2zM10 92h48v-60h-48v60z"
    fill="#ffffff" />
  <path
    d="M86 68h-4c-1.1 0-2-0.9-2-2s0.9-2 2-2h4c1.1 0 2 0.9 2 2s-0.9 2-2 2zM74 68h-4c-1.1 0-2-0.9-2-2s0.9-2 2-2h4c1.1 0 2 0.9 2 2s-0.9 2-2 2zM88 62c-1.1 0-2-0.9-2-2v-4c0-1.1 0.9-2 2-2s2 0.9 2 2v4c0 1.1-0.9 2-2 2zM88 50c-1.1 0-2-0.9-2-2v-4c0-1.1 0.9-2 2-2s2 0.9 2 2v4c0 1.1-0.9 2-2 2zM88 38c-1.1 0-2-0.9-2-2v-4c0-1.1 0.9-2 2-2s2 0.9 2 2v4c0 1.1-0.9 2-2 2zM36 30c-1.104 0-2-0.9-2-2v-4c0-1.1 0.896-2 2-2s2 0.9 2 2v4c0 1.1-0.896 2-2 2zM88 26c-1.1 0-2-0.9-2-2v-4c0-1.1 0.9-2 2-2s2 0.9 2 2v4c0 1.1-0.9 2-2 2zM36 18c-1.104 0-2-0.9-2-2v-4c0-1.1 0.896-2 2-2s2 0.9 2 2v4c0 1.1-0.896 2-2 2zM88 14c-1.1 0-2-0.9-2-2v-4c0-1.1 0.9-2 2-2s2 0.9 2 2v4c0 1.1-0.9 2-2 2zM36 6c-1.104 0-2-0.9-2-2v-2c0-1.1 0.896-2 2-2h2c1.104 0 2 0.9 2 2s-0.896 2-2 2c0 1.1-0.896 2-2 2zM86 4h-4c-1.1 0-2-0.9-2-2s0.9-2 2-2h4c1.1 0 2 0.9 2 2s-0.9 2-2 2zM74 4h-4c-1.1 0-2-0.9-2-2s0.9-2 2-2h4c1.1 0 2 0.9 2 2s-0.9 2-2 2zM62 4h-4c-1.1 0-2-0.9-2-2s0.9-2 2-2h4c1.1 0 2 0.9 2 2s-0.9 2-2 2zM50 4h-4c-1.104 0-2-0.9-2-2s0.896-2 2-2h4c1.1 0 2 0.9 2 2s-0.9 2-2 2z"
    fill="#ffffff" />
</svg>