<svg xmlns="http://www.w3.org/2000/svg" xmlns:xlink="http://www.w3.org/1999/xlink" version="1.1"
  viewBox="0 0 100 120" x="0px" y="0px">
  <path
    d="M36 82c-0.44 0-0.884-0.148-1.252-0.436l-10-8c-0.86-0.696-1-1.944-0.312-2.82 0.688-0.86 1.948-1 2.812-0.304l8.752 7 8.752-7c0.864-0.688 2.12-0.548 2.812 0.312 0.688 0.868 0.548 2.12-0.312 2.812l-10 8c-0.368 0.288-0.812 0.436-1.252 0.436z"
    fill="#ffffff" />
  <path d="M36 82c-1.104 0-2-0.892-2-2v-76c0-1.108 0.896-2 2-2s2 0.892 2 2v76c0 1.108-0.896 2-2 2z"
    fill="#ffffff" />
  <path
    d="M64 82c-0.436 0-0.884-0.148-1.252-0.436l-10-8c-0.86-0.696-1-1.944-0.312-2.82 0.688-0.86 1.944-1 2.812-0.304l8.752 7 8.752-7c0.876-0.688 2.12-0.548 2.812 0.312 0.688 0.868 0.548 2.12-0.312 2.812l-10 8c-0.368 0.288-0.816 0.436-1.252 0.436z"
    fill="#ffffff" />
  <path d="M64 82c-1.1 0-2-0.892-2-2v-76c0-1.108 0.9-2 2-2s2 0.892 2 2v76c0 1.108-0.9 2-2 2z"
    fill="#ffffff" />
  <path
    d="M16 94c-1.104 0-2-0.892-2-2v-48h-12c-1.104 0-2-0.896-2-2s0.896-2 2-2h14c1.104 0 2 0.896 2 2v50c0 1.108-0.896 2-2 2z"
    fill="#ffffff" />
  <path
    d="M84 94c-1.1 0-2-0.892-2-2v-50c0-1.104 0.9-2 2-2h14c1.1 0 2 0.896 2 2s-0.9 2-2 2h-12v48c0 1.108-0.9 2-2 2z"
    fill="#ffffff" />
</svg>