<svg xmlns="http://www.w3.org/2000/svg" xmlns:xlink="http://www.w3.org/1999/xlink" version="1.1"
  viewBox="0 0 96 120" x="0px" y="0px">
  <path
    d="M37.472 23c17.668 0 32 14.328 32 32s-14.328 32-32 32c-17.672 0-32-14.328-32-32s14.328-32 32-32zM37.472 19c-19.848 0-36 16.148-36 36s16.152 36 36 36c19.848 0 36-16.148 36-36s-16.152-36-36-36v0z"
    fill="#ffffff" />
  <path
    d="M85.468 57c-1.1 0-2-0.9-2-2 0-25.364-20.632-46-46-46-1.104 0-2-0.9-2-2s0.896-2 2-2c27.572 0 50 22.428 50 50 0 1.1-0.896 2-2 2z"
    fill="#ffffff" />
  <path
    d="M85.468 58c-0.608 0-1.18-0.272-1.572-0.752l-10.368-13c-0.696-0.868-0.556-2.12 0.312-2.812 0.86-0.68 2.124-0.552 2.804 0.32l8.368 10.484 5.704-12.148c0.476-1.008 1.664-1.432 2.656-0.968 1 0.476 1.428 1.664 0.96 2.664l-7.064 15.064c-0.296 0.628-0.9 1.064-1.584 1.136-0.060 0.008-0.136 0.012-0.216 0.012z"
    fill="#ffffff" />
  <path
    d="M37.472 57c-0.512 0-1.024-0.196-1.416-0.584-0.78-0.772-0.78-2.048 0-2.828l16-16c0.78-0.772 2.048-0.772 2.828 0 0.78 0.78 0.78 2.056 0 2.828l-16 16c-0.388 0.388-0.9 0.584-1.412 0.584z"
    fill="#ffffff" />
  <path
    d="M37.472 57c-0.512 0-1.024-0.196-1.416-0.584l-12-12c-0.78-0.772-0.78-2.048 0-2.828 0.78-0.772 2.048-0.772 2.828 0l12 12c0.78 0.78 0.78 2.056 0 2.828-0.388 0.388-0.9 0.584-1.412 0.584z"
    fill="#ffffff" />
</svg>