<svg xmlns="http://www.w3.org/2000/svg" xmlns:xlink="http://www.w3.org/1999/xlink" version="1.1" x="0px" y="0px" viewBox="0 0 104 120" enable-background="new 0 0 104 96" xml:space="preserve">
  <path fill="#ffffff" d="M52,20C23.328,20,0,43.328,0,72c0,2.212,1.792,4,4,4s4-1.788,4-4c0-24.256,19.74-44,44-44c24.256,0,44,19.744,44,44  c0,2.212,1.792,4,4,4s4-1.788,4-4C104,43.328,80.672,20,52,20z"/>
  <path fill="#ffffff" d="M52,32c-22.056,0-40,17.943-40,40c0,2.212,1.792,4,4,4s4-1.788,4-4c0-17.645,14.356-32,32-32c17.645,0,32,14.355,32,32  c0,2.212,1.792,4,4,4s4-1.788,4-4C92,49.943,74.057,32,52,32z"/>
  <path fill="#ffffff" d="M52,44c-15.44,0-28,12.564-28,28c0,2.212,1.792,4,4,4s4-1.788,4-4c0-11.027,8.972-20,20-20c11.027,0,20,8.973,20,20  c0,2.212,1.792,4,4,4s4-1.788,4-4C80,56.564,67.436,44,52,44z"/>
</svg>