<svg xmlns="http://www.w3.org/2000/svg" xmlns:xlink="http://www.w3.org/1999/xlink" version="1.1"
  viewBox="0 0 96 120" x="0px" y="0px">
  <path
    d="M49.684 41.896c-0.56 0-1.040-0.2-1.44-0.56-0.36-0.36-0.6-0.888-0.6-1.408 0-0.564 0.24-1.080 0.6-1.436 0.72-0.724 2.12-0.756 2.84 0.040 0.36 0.36 0.596 0.844 0.596 1.404 0 0.52-0.248 1.044-0.596 1.404-0.356 0.356-0.88 0.556-1.4 0.556z"
    fill="#ffffff" />
  <path
    d="M37.168 55.18c-0.52 0-1.040-0.256-1.4-0.608-0.4-0.36-0.6-0.876-0.6-1.4 0-0.572 0.2-1.084 0.6-1.436 0.72-0.72 2.080-0.72 2.8 0 0.4 0.4 0.6 0.92 0.6 1.436s-0.2 1.040-0.6 1.4c-0.364 0.356-0.884 0.608-1.4 0.608z"
    fill="#ffffff" />
  <path
    d="M41.408 67.172c-0.52 0-1.040-0.244-1.4-0.6-0.4-0.4-0.6-0.884-0.6-1.4 0-0.524 0.2-1.040 0.6-1.408 0.76-0.752 2.080-0.752 2.84-0.040 0.36 0.4 0.56 0.92 0.56 1.436 0 0.484-0.2 1-0.56 1.4-0.404 0.368-0.924 0.612-1.44 0.612z"
    fill="#ffffff" />
  <path
    d="M58.164 67.892c-0.516 0-1.040-0.196-1.4-0.564-0.404-0.4-0.6-0.916-0.6-1.4 0-0.556 0.204-1.040 0.564-1.436 0.796-0.756 2.116-0.728 2.844 0 0.404 0.408 0.592 0.916 0.592 1.436 0 0.476-0.196 1-0.564 1.368-0.396 0.392-0.912 0.596-1.436 0.596z"
    fill="#ffffff" />
  <path
    d="M60.92 54.656c-0.516 0-1.040-0.196-1.436-0.572-0.36-0.4-0.564-0.916-0.564-1.428s0.204-1.048 0.596-1.408c0.68-0.728 2.084-0.756 2.844 0 0.32 0.36 0.56 0.884 0.56 1.408s-0.196 1.040-0.592 1.408c-0.36 0.38-0.884 0.592-1.408 0.592z"
    fill="#ffffff" />
  <path
    d="M49.604 59.564c-3.344 0-6.068-2.72-6.068-6.064s2.72-6.076 6.068-6.076c3.34 0 6.068 2.732 6.068 6.076s-2.728 6.064-6.068 6.064zM49.604 51.428c-1.14 0-2.068 0.92-2.068 2.072s0.928 2.064 2.068 2.064 2.068-0.916 2.068-2.064c0-1.14-0.92-2.072-2.068-2.072z"
    fill="#ffffff" />
  <path
    d="M75.476 95.992c-1.584 0-3.384-0.884-5.5-2.696l-14.36-12.288c-4-3.428-11.388-3.572-15.488-0.288l-13.924 11.156c-3.756 3.008-6.868 3.18-8.444 1.016-1.156-1.584-1.16-4.196-0.012-7.752l4.644-14.42c1.824-5.656-0.46-13.032-4.984-16.1l-13.008-8.94c-4.36-2.948-4.712-5.424-4.24-6.972 0.46-1.5 2.044-3.28 6.976-3.28h17.384c5.268 0 11.096-4.788 12.732-10.468l5.372-18.556c1.224-4.252 3.032-6.4 5.38-6.4 2.344 0 4.16 2.148 5.38 6.404l5.376 18.552c1.632 5.672 7.46 10.468 12.728 10.468h17.392c4.936 0 6.516 1.768 6.968 3.264 0.468 1.54 0.108 3.992-4.272 6.928l-12.932 8.708c-4.56 3.064-6.928 10.452-5.192 16.164l5.008 16.408c1.092 3.6 1.076 6.108-0.088 7.68-0.684 0.912-1.708 1.412-2.896 1.412zM75.476 91.992v0zM47.664 74.236c4 0 7.752 1.328 10.564 3.736l14.352 12.288c1.412 1.212 2.252 1.584 2.64 1.688 0.084-0.46 0.116-1.592-0.584-3.892l-5-16.4c-2.252-7.368 0.784-16.632 6.768-20.648l12.936-8.72c2.048-1.38 2.532-2.252 2.64-2.52-0.1 0.028-0.976-0.364-3.092-0.364h-17.392c-7.14 0-14.416-5.868-16.58-13.356l-5.368-18.548c-0.704-2.448-1.4-3.252-1.64-3.476-0.036 0.22-0.732 1.016-1.436 3.468l-5.372 18.556c-2.152 7.492-9.432 13.36-16.572 13.36h-17.384c-2.2 0-2.984 0.416-3.172 0.564 0.14 0.068 0.576 0.968 2.688 2.404l13.012 8.932c5.964 4.056 8.9 13.304 6.536 20.632l-4.644 14.42c-0.924 2.868-0.648 3.936-0.572 4.14 0.008-0.148 0.904-0.304 2.72-1.756l13.924-11.148c2.7-2.168 6.264-3.36 10.028-3.36z"
    fill="#ffffff" />
</svg>